<svg width="100" height="100" viewBox="0 0 500 500" fill="none" xmlns="http://www.w3.org/2000/svg">
<path d="M450 0H50C22.3858 0 0 22.3858 0 50V450C0 477.614 22.3858 500 50 500H450C477.614 500 500 477.614 500 450V50C500 22.3858 477.614 0 450 0Z" fill="#9AC268"/>
<path fill-rule="evenodd" clip-rule="evenodd" d="M199.9 183.1V191.5H177.8C167.1 191.5 158.1 199.6 157 210.2L142.9 343.9C141.7 355.4 150 365.7 161.5 366.9C162.2 366.9 163 367 163.7 367H336.4C347.9 367 357.3 357.6 357.3 346.1C357.3 345.4 357.3 344.6 357.2 343.9L343.1 210.2C342 199.6 333 191.5 322.3 191.5H300.2V183.1C300.2 155.4 277.8 133 250.1 133C222.4 133 200 155.4 200 183.1H199.9ZM250 149.7C231.5 149.7 216.6 164.7 216.6 183.1V191.5H283.5V183.1C283.5 164.6 268.5 149.7 250.1 149.7H250ZM216.6 241.6C216.6 260.1 231.6 275 250 275C268.4 275 283.4 260 283.4 241.6V233.2C283.4 228.6 287.1 224.8 291.8 224.8C296.5 224.8 300.2 228.5 300.2 233.2V241.6C300.2 269.3 277.8 291.7 250.1 291.7C222.4 291.7 200 269.3 200 241.6V233.2C200 228.6 203.7 224.8 208.4 224.8C213.1 224.8 216.8 228.5 216.8 233.2V241.6H216.6Z" fill="white"/>
</svg>
